
<!-- Generator: visioncortex VTracer 0.6.4 -->
<svg version="1.1" xmlns="http://www.w3.org/2000/svg" viewBox="0 0 512 512" preserveAspectRatio="xMidYMid meet">
<path d="M0 0 C3.96 0 7.92 0 12 0 C17.692 11.873 22.918 23.933 28.073 36.047 C29.454 39.288 30.843 42.525 32.232 45.762 C33.113 47.825 33.992 49.889 34.871 51.953 C35.287 52.919 35.702 53.884 36.13 54.879 C36.508 55.771 36.886 56.664 37.275 57.583 C37.609 58.366 37.944 59.149 38.288 59.956 C39 62 39 62 39 65 C39.99 65 40.98 65 42 65 C42.17 64.391 42.339 63.782 42.514 63.155 C44.291 56.979 46.483 51.142 49.055 45.258 C49.438 44.368 49.822 43.479 50.217 42.562 C51.431 39.747 52.653 36.936 53.875 34.125 C55.086 31.326 56.295 28.527 57.504 25.728 C58.281 23.932 59.058 22.135 59.836 20.34 C62.331 14.578 64.767 8.798 67.129 2.98 C68 1 68 1 69 0 C72.96 0 76.92 0 81 0 C81 26.73 81 53.46 81 81 C77.7 81 74.4 81 71 81 C69.714 78.429 69.88 76.603 69.886 73.724 C69.887 72.073 69.887 72.073 69.887 70.388 C69.892 69.195 69.897 68.002 69.902 66.773 C69.904 65.555 69.905 64.338 69.907 63.083 C69.912 59.18 69.925 55.278 69.938 51.375 C69.943 48.734 69.947 46.094 69.951 43.453 C69.962 36.969 69.979 30.484 70 24 C68.06 28.457 66.123 32.916 64.188 37.375 C63.897 38.044 63.607 38.712 63.307 39.401 C58.577 50.299 53.919 61.225 49.341 72.187 C48.7 73.713 48.7 73.713 48.047 75.27 C47.674 76.163 47.301 77.056 46.917 77.976 C46 80 46 80 45 81 C43.481 81.072 41.958 81.084 40.438 81.062 C39.198 81.049 39.198 81.049 37.934 81.035 C36.976 81.018 36.976 81.018 36 81 C34.427 77.922 33.001 74.797 31.609 71.633 C31.15 70.589 30.691 69.545 30.217 68.469 C29.733 67.366 29.249 66.262 28.75 65.125 C28.254 63.996 27.758 62.867 27.248 61.704 C22.386 50.622 17.601 39.513 12.98 28.328 C12.365 26.866 11.71 25.419 11 24 C10.67 42.81 10.34 61.62 10 81 C6.7 81 3.4 81 0 81 C-0.156 73.54 -0.304 66.079 -0.443 58.619 C-0.508 55.152 -0.575 51.686 -0.648 48.219 C-0.987 32.102 -1.079 16.092 0 0 Z " fill="#2D2C2D" transform="translate(98,207)"/>
<path d="M0 0 C2.97 0.33 5.94 0.66 9 1 C9 27.73 9 54.46 9 82 C5.7 82 2.4 82 -1 82 C-1.33 80.02 -1.66 78.04 -2 76 C-2.887 76.784 -3.774 77.567 -4.688 78.375 C-10.207 83.253 -15.728 83.366 -22.832 83.262 C-26.924 82.924 -29.425 81.977 -33 80 C-33.654 79.729 -34.307 79.459 -34.98 79.18 C-37.553 77.677 -38.646 75.995 -40.25 73.5 C-40.771 72.706 -41.292 71.912 -41.828 71.094 C-43 69 -43 69 -43 67 C-43.66 66.67 -44.32 66.34 -45 66 C-47.572 55.164 -47.499 41.859 -42 32 C-37.984 25.861 -33.21 21.74 -26 20 C-18.294 19.092 -11.409 19.28 -5 24 C-3.992 24.992 -2.991 25.991 -2 27 C-1.962 25.826 -1.962 25.826 -1.924 24.629 C-1.809 21.107 -1.686 17.585 -1.562 14.062 C-1.523 12.831 -1.484 11.599 -1.443 10.33 C-1.381 8.575 -1.381 8.575 -1.316 6.785 C-1.28 5.701 -1.243 4.617 -1.205 3.5 C-1 1 -1 1 0 0 Z M-31.75 34.812 C-36.982 42.225 -36.74 50.225 -36 59 C-34.417 65.45 -31.434 69.3 -26 73 C-20.833 74.722 -15.894 74.656 -10.75 72.875 C-5.399 69.227 -2.691 65.172 -1 59 C-0.153 50.687 -0.302 42.212 -5 35 C-5.99 34.67 -6.98 34.34 -8 34 C-8 33.34 -8 32.68 -8 32 C-16.449 26.801 -24.796 27.701 -31.75 34.812 Z " fill="#2B2B2B" transform="translate(301,206)"/>
<path d="M0 0 C5.445 0.495 5.445 0.495 11 1 C9.483 4.793 8.114 7.616 5.953 10.984 C5.355 11.92 4.757 12.856 4.141 13.82 C3.517 14.787 2.893 15.754 2.25 16.75 C1.337 18.177 1.337 18.177 0.406 19.633 C-0.197 20.574 -0.8 21.515 -1.422 22.484 C-2.015 23.413 -2.609 24.342 -3.221 25.299 C-4.381 27.06 -5.582 28.795 -6.826 30.498 C-10.099 34.89 -10.099 34.89 -11.156 40.125 C-9.699 43.749 -7.748 46.833 -5.5 50 C-4.587 51.326 -3.676 52.653 -2.766 53.98 C-2.303 54.649 -1.841 55.317 -1.365 56.005 C0.732 59.07 2.747 62.186 4.75 65.312 C5.118 65.886 5.486 66.459 5.865 67.049 C9.011 71.973 12.04 76.962 15 82 C10.386 82.976 6.587 83.213 2 82 C-1.744 78.201 -4.15 73.922 -6.711 69.273 C-8.978 65.274 -11.541 61.466 -14.062 57.625 C-14.992 56.18 -15.92 54.735 -16.848 53.289 C-18.666 50.266 -18.666 50.266 -20 49 C-20.528 49.86 -20.528 49.86 -21.066 50.737 C-23.899 55.347 -26.749 59.944 -29.625 64.527 C-31.585 67.662 -33.467 70.795 -35.188 74.066 C-36.934 77.193 -38.315 79.627 -41 82 C-45.504 82.954 -49.477 82.745 -54 82 C-51.852 77.462 -49.325 73.325 -46.5 69.188 C-45.616 67.876 -44.734 66.563 -43.852 65.25 C-43.39 64.564 -42.929 63.878 -42.454 63.172 C-39.902 59.36 -37.383 55.528 -34.875 51.688 C-34.39 50.952 -33.904 50.217 -33.404 49.46 C-30.894 46.015 -30.894 46.015 -30 42 C-28.5 40.375 -28.5 40.375 -27 39 C-27.584 38.087 -27.584 38.087 -28.18 37.156 C-30.125 34.108 -32.064 31.055 -34 28 C-34.428 27.326 -34.856 26.652 -35.297 25.957 C-36.66 23.807 -38.018 21.654 -39.375 19.5 C-40.036 18.459 -40.036 18.459 -40.71 17.396 C-42.454 14.622 -43.96 12.121 -45 9 C-45.66 9 -46.32 9 -47 9 C-48.32 6.36 -49.64 3.72 -51 1 C-48.875 0.973 -46.75 0.954 -44.625 0.938 C-43.442 0.926 -42.258 0.914 -41.039 0.902 C-38 1 -38 1 -36 2 C-35.108 3.575 -35.108 3.575 -34.191 5.578 C-32.112 9.897 -29.635 13.795 -26.938 17.75 C-26.504 18.396 -26.07 19.042 -25.623 19.707 C-23.492 22.867 -21.326 25.979 -19 29 C-17.85 27.232 -16.705 25.46 -15.562 23.688 C-14.605 22.208 -14.605 22.208 -13.629 20.699 C-11.894 18.047 -11.894 18.047 -11 15 C-10.34 15 -9.68 15 -9 15 C-8.617 13.927 -8.617 13.927 -8.227 12.832 C-6.912 9.798 -5.305 7.368 -3.375 4.688 C-2.743 3.804 -2.112 2.921 -1.461 2.012 C-0.979 1.348 -0.497 0.684 0 0 Z " fill="#10AF9B" transform="translate(396,206)"/>
<path d="M0 0 C6.78 3.998 11.086 9.414 13.438 16.938 C14.097 21.887 14.757 26.838 15.438 31.938 C0.257 31.938 -14.923 31.938 -30.562 31.938 C-28.074 42.925 -28.074 42.925 -21 49.75 C-15.598 51.616 -9.877 52.106 -4.402 50.176 C-1.672 48.709 0.189 47.344 1.812 44.688 C3.438 42.938 3.438 42.938 5.613 42.688 C7.901 42.688 10.156 42.765 12.438 42.938 C13.438 45.938 13.438 45.938 12.504 48.023 C8.589 53.982 4.523 58.22 -2.355 60.543 C-11.583 62.193 -20.426 61.691 -28.562 56.938 C-29.271 56.605 -29.98 56.272 -30.711 55.93 C-33.448 54.463 -34.124 52.699 -35.562 49.938 C-35.99 49.305 -36.418 48.672 -36.859 48.02 C-42.269 39.19 -41.99 28.465 -39.828 18.578 C-36.725 9.371 -32.278 3.35 -23.562 -1.062 C-16.302 -3.483 -6.95 -3.231 0 0 Z M-26.312 12.625 C-29.173 16.427 -29.173 16.427 -30.562 23.938 C-19.012 23.938 -7.463 23.938 4.438 23.938 C3.082 16.985 3.082 16.985 -0.562 11.938 C-1.222 11.938 -1.882 11.938 -2.562 11.938 C-2.892 10.947 -3.222 9.958 -3.562 8.938 C-11.384 4.293 -20.158 6.61 -26.312 12.625 Z " fill="#2D2C2D" transform="translate(232.5625,228.0625)"/>
<path d="M0 0 C3.3 0 6.6 0 10 0 C10.33 20.13 10.66 40.26 11 61 C7.7 61 4.4 61 1 61 C0 60 0 60 -0.12 57.602 C-0.118 56.538 -0.116 55.475 -0.114 54.379 C-0.113 53.177 -0.113 51.976 -0.113 50.739 C-0.108 49.431 -0.103 48.124 -0.098 46.777 C-0.096 45.434 -0.094 44.09 -0.093 42.746 C-0.09 39.203 -0.08 35.66 -0.069 32.118 C-0.058 28.505 -0.054 24.892 -0.049 21.279 C-0.038 14.186 -0.021 7.093 0 0 Z " fill="#302F30" transform="translate(324,227)"/>
<path d="M0 0 C3.63 0 7.26 0 11 0 C11 0.33 11 0.66 11 1 C8.03 1 5.06 1 2 1 C2 27.07 2 53.14 2 80 C4.31 80 6.62 80 9 80 C9 59.87 9 39.74 9 19 C9.66 18.67 10.32 18.34 11 18 C10.67 38.79 10.34 59.58 10 81 C6.7 81 3.4 81 0 81 C-0.156 73.54 -0.304 66.079 -0.443 58.619 C-0.508 55.152 -0.575 51.686 -0.648 48.219 C-0.987 32.102 -1.079 16.092 0 0 Z " fill="#1D1C1D" transform="translate(98,207)"/>
<path d="M0 0 C3.625 0.25 3.625 0.25 5.5 1.5 C6.811 3.54 7.411 4.823 7.625 7.25 C6.812 9.938 6.812 9.938 5.625 12.25 C2.606 13.759 -0.048 13.425 -3.375 13.25 C-6.375 11.25 -6.375 11.25 -7.25 8.938 C-7.41 5.5 -6.36 3.998 -4.375 1.25 C-3.375 0.25 -3.375 0.25 0 0 Z " fill="#2C2B2C" transform="translate(329.375,203.75)"/>
<path d="M0 0 C0.33 0 0.66 0 1 0 C1.182 0.664 1.364 1.328 1.551 2.012 C2.914 6.802 4.347 10.755 7 15 C6.67 15.66 6.34 16.32 6 17 C2.714 13.261 0.603 9.725 -1 5 C-0.688 2.062 -0.688 2.062 0 0 Z " fill="#1C1C1D" transform="translate(193,263)"/>
<path d="M0 0 C4.29 0 8.58 0 13 0 C13 0.33 13 0.66 13 1 C8.545 1.495 8.545 1.495 4 2 C3.67 2.99 3.34 3.98 3 5 C2.01 3.35 1.02 1.7 0 0 Z " fill="#138077" transform="translate(345,207)"/>
<path d="M0 0 C0.66 0.33 1.32 0.66 2 1 C0.375 6.75 0.375 6.75 -3 9 C-1.125 4.25 -1.125 4.25 0 2 C-0.99 1.67 -1.98 1.34 -3 1 C-2.01 0.67 -1.02 0.34 0 0 Z " fill="#191A1A" transform="translate(244,271)"/>
</svg>